<mxfile host="Electron" modified="2023-08-09T12:56:46.609Z" agent="Mozilla/5.0 (Macintosh; Intel Mac OS X 10_15_7) AppleWebKit/537.36 (KHTML, like Gecko) draw.io/21.1.2 Chrome/106.0.5249.199 Electron/21.4.3 Safari/537.36" etag="v7pXXG7NbJOGFk5BKBcv" version="21.1.2" type="device">
  <diagram name="Page-1" id="LG7O006-bUlTSviFmSuo">
    <mxGraphModel dx="1642" dy="1265" grid="1" gridSize="10" guides="1" tooltips="1" connect="1" arrows="1" fold="1" page="0" pageScale="1" pageWidth="1169" pageHeight="827" math="0" shadow="0">
      <root>
        <mxCell id="0" />
        <mxCell id="1" parent="0" />
        <mxCell id="uAyqlgFCZZ-5LOfcj9-v-2" value="Velocitas" style="rounded=0;whiteSpace=wrap;html=1;fontSize=16;dashed=1;dashPattern=8 8;fillColor=none;verticalAlign=top;strokeWidth=1;" vertex="1" parent="1">
          <mxGeometry x="-160" y="-60" width="680" height="420" as="geometry" />
        </mxCell>
        <mxCell id="uAyqlgFCZZ-5LOfcj9-v-34" style="edgeStyle=none;curved=1;rounded=0;orthogonalLoop=1;jettySize=auto;html=1;entryX=0.5;entryY=0;entryDx=0;entryDy=0;fontSize=12;startSize=8;endSize=8;dashed=1;dashPattern=1 4;" edge="1" parent="1" source="uAyqlgFCZZ-5LOfcj9-v-1" target="uAyqlgFCZZ-5LOfcj9-v-25">
          <mxGeometry relative="1" as="geometry" />
        </mxCell>
        <mxCell id="uAyqlgFCZZ-5LOfcj9-v-1" value="AppManifest" style="rounded=0;whiteSpace=wrap;html=1;fontSize=16;fillColor=#f8cecc;strokeColor=#b85450;shadow=1;" vertex="1" parent="1">
          <mxGeometry x="120" y="60" width="120" height="60" as="geometry" />
        </mxCell>
        <mxCell id="uAyqlgFCZZ-5LOfcj9-v-6" value="" style="edgeStyle=none;curved=1;rounded=0;orthogonalLoop=1;jettySize=auto;html=1;fontSize=12;startSize=8;endSize=8;exitX=1;exitY=0.5;exitDx=0;exitDy=0;entryX=0;entryY=0.25;entryDx=0;entryDy=0;" edge="1" parent="1" source="uAyqlgFCZZ-5LOfcj9-v-13" target="uAyqlgFCZZ-5LOfcj9-v-1">
          <mxGeometry relative="1" as="geometry">
            <mxPoint x="180" y="60" as="targetPoint" />
          </mxGeometry>
        </mxCell>
        <mxCell id="uAyqlgFCZZ-5LOfcj9-v-11" value="read/write" style="edgeLabel;html=1;align=center;verticalAlign=middle;resizable=0;points=[];fontSize=16;" vertex="1" connectable="0" parent="uAyqlgFCZZ-5LOfcj9-v-6">
          <mxGeometry x="-0.2857" y="1" relative="1" as="geometry">
            <mxPoint as="offset" />
          </mxGeometry>
        </mxCell>
        <mxCell id="uAyqlgFCZZ-5LOfcj9-v-5" value="Toolchain" style="rounded=0;whiteSpace=wrap;html=1;fontSize=16;fillColor=none;strokeColor=#000000;shadow=0;dashed=1;dashPattern=8 8;verticalAlign=top;strokeWidth=1;" vertex="1" parent="1">
          <mxGeometry x="-120" y="-20" width="150" height="210" as="geometry" />
        </mxCell>
        <mxCell id="uAyqlgFCZZ-5LOfcj9-v-23" style="edgeStyle=none;curved=1;rounded=0;orthogonalLoop=1;jettySize=auto;html=1;entryX=0.5;entryY=0;entryDx=0;entryDy=0;fontSize=12;startSize=8;endSize=8;" edge="1" parent="1" source="uAyqlgFCZZ-5LOfcj9-v-7" target="uAyqlgFCZZ-5LOfcj9-v-1">
          <mxGeometry relative="1" as="geometry" />
        </mxCell>
        <mxCell id="uAyqlgFCZZ-5LOfcj9-v-24" value="writes" style="edgeLabel;html=1;align=center;verticalAlign=middle;resizable=0;points=[];fontSize=16;" vertex="1" connectable="0" parent="uAyqlgFCZZ-5LOfcj9-v-23">
          <mxGeometry x="-0.48" relative="1" as="geometry">
            <mxPoint as="offset" />
          </mxGeometry>
        </mxCell>
        <mxCell id="uAyqlgFCZZ-5LOfcj9-v-7" value="Vehicle App&lt;br&gt;Developer" style="rounded=0;whiteSpace=wrap;html=1;fontSize=16;shadow=1;fillColor=#CCCCCC;fontColor=#FFFFFF;strokeColor=#BFBFBF;" vertex="1" parent="1">
          <mxGeometry x="90" y="-200" width="180" height="60" as="geometry" />
        </mxCell>
        <mxCell id="uAyqlgFCZZ-5LOfcj9-v-12" value="" style="shape=actor;whiteSpace=wrap;html=1;fontSize=16;strokeColor=none;" vertex="1" parent="1">
          <mxGeometry x="100" y="-187.5" width="30" height="35" as="geometry" />
        </mxCell>
        <mxCell id="uAyqlgFCZZ-5LOfcj9-v-13" value="CLI" style="rounded=0;whiteSpace=wrap;html=1;fontSize=16;fillColor=#dae8fc;strokeColor=#6c8ebf;shadow=1;" vertex="1" parent="1">
          <mxGeometry x="-90" y="10" width="90" height="60" as="geometry" />
        </mxCell>
        <mxCell id="uAyqlgFCZZ-5LOfcj9-v-15" style="edgeStyle=none;curved=1;rounded=0;orthogonalLoop=1;jettySize=auto;html=1;entryX=0;entryY=0.75;entryDx=0;entryDy=0;fontSize=12;startSize=8;endSize=8;exitX=1;exitY=0.5;exitDx=0;exitDy=0;" edge="1" parent="1" source="uAyqlgFCZZ-5LOfcj9-v-14" target="uAyqlgFCZZ-5LOfcj9-v-1">
          <mxGeometry relative="1" as="geometry" />
        </mxCell>
        <mxCell id="uAyqlgFCZZ-5LOfcj9-v-16" value="read" style="edgeLabel;html=1;align=center;verticalAlign=middle;resizable=0;points=[];fontSize=16;" vertex="1" connectable="0" parent="uAyqlgFCZZ-5LOfcj9-v-15">
          <mxGeometry x="-0.237" y="-1" relative="1" as="geometry">
            <mxPoint x="-6" y="-1" as="offset" />
          </mxGeometry>
        </mxCell>
        <mxCell id="uAyqlgFCZZ-5LOfcj9-v-26" style="edgeStyle=none;curved=1;rounded=0;orthogonalLoop=1;jettySize=auto;html=1;entryX=0;entryY=0.5;entryDx=0;entryDy=0;fontSize=12;startSize=8;endSize=8;" edge="1" parent="1" source="uAyqlgFCZZ-5LOfcj9-v-14" target="uAyqlgFCZZ-5LOfcj9-v-25">
          <mxGeometry relative="1" as="geometry" />
        </mxCell>
        <mxCell id="uAyqlgFCZZ-5LOfcj9-v-27" value="generate" style="edgeLabel;html=1;align=center;verticalAlign=middle;resizable=0;points=[];fontSize=16;" vertex="1" connectable="0" parent="uAyqlgFCZZ-5LOfcj9-v-26">
          <mxGeometry x="-0.025" y="1" relative="1" as="geometry">
            <mxPoint as="offset" />
          </mxGeometry>
        </mxCell>
        <mxCell id="uAyqlgFCZZ-5LOfcj9-v-14" value="Packages" style="rounded=0;whiteSpace=wrap;html=1;fontSize=16;fillColor=#dae8fc;strokeColor=#6c8ebf;shadow=1;" vertex="1" parent="1">
          <mxGeometry x="-90" y="100" width="90" height="60" as="geometry" />
        </mxCell>
        <mxCell id="uAyqlgFCZZ-5LOfcj9-v-25" value="Deployment Spec" style="rounded=0;whiteSpace=wrap;html=1;fontSize=16;fillColor=#CCCCCC;strokeColor=none;shadow=1;fontColor=#FFFFFF;" vertex="1" parent="1">
          <mxGeometry x="120" y="260" width="120" height="60" as="geometry" />
        </mxCell>
        <mxCell id="uAyqlgFCZZ-5LOfcj9-v-36" style="edgeStyle=none;curved=1;rounded=0;orthogonalLoop=1;jettySize=auto;html=1;fontSize=12;startSize=8;endSize=8;" edge="1" parent="1" source="uAyqlgFCZZ-5LOfcj9-v-32" target="uAyqlgFCZZ-5LOfcj9-v-25">
          <mxGeometry relative="1" as="geometry" />
        </mxCell>
        <mxCell id="uAyqlgFCZZ-5LOfcj9-v-37" value="uses" style="edgeLabel;html=1;align=center;verticalAlign=middle;resizable=0;points=[];fontSize=16;" vertex="1" connectable="0" parent="uAyqlgFCZZ-5LOfcj9-v-36">
          <mxGeometry x="-0.25" relative="1" as="geometry">
            <mxPoint as="offset" />
          </mxGeometry>
        </mxCell>
        <mxCell id="uAyqlgFCZZ-5LOfcj9-v-32" value="Vehicle App&lt;br&gt;Integrator" style="rounded=0;whiteSpace=wrap;html=1;fontSize=16;shadow=1;fillColor=#CCCCCC;fontColor=#FFFFFF;strokeColor=#BFBFBF;" vertex="1" parent="1">
          <mxGeometry x="90" y="400" width="180" height="60" as="geometry" />
        </mxCell>
        <mxCell id="uAyqlgFCZZ-5LOfcj9-v-33" value="" style="shape=actor;whiteSpace=wrap;html=1;fontSize=16;strokeColor=none;" vertex="1" parent="1">
          <mxGeometry x="100" y="412.5" width="30" height="35" as="geometry" />
        </mxCell>
      </root>
    </mxGraphModel>
  </diagram>
</mxfile>
